<svg width="512" height="508" viewBox="0 0 512 508" fill="none" xmlns="http://www.w3.org/2000/svg">
<path d="M440.703 188.733C458.926 184.852 500.198 153.802 507.366 137.363C448.022 177.748 410.289 166.424 391.265 160.714C390.455 160.471 389.679 160.238 388.936 160.02C384.933 158.874 375.668 154.714 367.034 149.525C366.436 149.165 365.847 148.811 365.267 148.463C347.264 137.655 337.928 132.05 323.464 111.021C315.262 99.1052 307.064 80.1665 304.375 69.3133C299.935 51.3699 301.165 23.7642 309.603 0C281.595 24.9944 277.278 73.2777 286.666 105.2C287.857 109.243 294.511 125.123 298.112 130.944C322.318 169.883 368.538 204.104 440.703 188.733Z" fill="#21609B"/>
<path d="M389.214 297.299C435.323 297.618 483.483 276.068 512 245.812C487.05 309.147 414.807 349.86 317.922 336.91C236.805 326.056 159.529 244.425 151.567 162.631C145.746 103.103 166.496 67.5743 200.683 24.4799C188.801 47.0196 184.361 64.4038 183.254 75.4919C170.265 204.261 286.117 296.628 389.214 297.299Z" fill="#21609B"/>
<path d="M500.118 376.52L497.825 382.458C458.768 458.504 389.572 505.166 290.869 507.223C244.728 508.174 200.761 496.337 172.043 483.459C110.06 455.613 57.9296 403.969 29.4573 348.791C-11.3836 269.693 -18.7477 159.662 66.1716 77.4766C66.8259 77.4766 64.2509 81.9317 61.676 86.3868C59.1011 90.8419 56.5262 95.297 57.1804 95.297L54.8431 102.902C-6.3512 294.486 182.18 458.666 365.45 439.89C409.495 435.377 465.662 411.255 500.118 376.52Z" fill="#21609B"/>
</svg>
