<svg width="70" height="70" viewBox="0 0 70 70" fill="none" xmlns="http://www.w3.org/2000/svg">
<g clip-path="url(#clip0_6_17)">
<path fill-rule="evenodd" clip-rule="evenodd" d="M0 35C0 15.67 15.67 0 35 0C54.33 0 70 15.67 70 35C70 54.33 54.33 70 35 70C15.67 70 0 54.33 0 35ZM58.9722 22.9782C58.3956 20.8364 56.7068 19.1476 54.5649 18.5709C50.6519 17.5 34.9998 17.5 34.9998 17.5C34.9998 17.5 19.3476 17.5 15.4346 18.5297C13.3339 19.1064 11.604 20.8364 11.0273 22.9782C9.99756 26.8913 9.99756 35.0057 9.99756 35.0057C9.99756 35.0057 9.99756 43.1612 11.0273 47.0331C11.604 49.1749 13.2927 50.8637 15.4346 51.4404C19.3888 52.5113 34.9998 52.5113 34.9998 52.5113C34.9998 52.5113 50.6519 52.5113 54.5649 51.4816C56.7068 50.9049 58.3956 49.2161 58.9722 47.0743C60.002 43.1612 60.002 35.0468 60.002 35.0468C60.002 35.0468 60.0432 26.8913 58.9722 22.9782ZM43.0321 35.0058L30.0161 42.5024V27.5093L43.0321 35.0058Z" fill="white"/>
</g>
<defs>
<clipPath id="clip0_6_17">
<rect width="70" height="70" rx="35" fill="white"/>
</clipPath>
</defs>
</svg>
