<svg width="70" height="70" viewBox="0 0 70 70" fill="none" xmlns="http://www.w3.org/2000/svg">
<g clip-path="url(#clip0_0_6913)">
<path fill-rule="evenodd" clip-rule="evenodd" d="M70 35C70 54.3299 54.3299 70 35 70C15.6701 70 0 54.3299 0 35C0 15.6701 15.6701 0 35 0C54.3299 0 70 15.6701 70 35ZM17.2237 15.0115L41.5046 13.2248C44.4863 12.9692 45.2534 13.1404 47.1275 14.5008L54.8783 19.9443C54.9449 19.9932 55.0094 20.0401 55.0715 20.0853C56.2005 20.909 56.5835 21.1884 56.5835 22.1557V52.0115C56.5835 53.8826 55.9013 54.9892 53.5165 55.1585L25.3192 56.86C23.5289 56.9453 22.677 56.6904 21.7394 55.4988L16.0316 48.0987C15.0087 46.7367 14.5835 45.7176 14.5835 44.5252V17.9874C14.5835 16.4573 15.2659 15.181 17.2237 15.0115ZM21.8259 20.7952C23.1333 21.8566 23.6564 21.8213 25.9585 21.666L26.2557 21.646L50.3633 20.1995C50.8747 20.1995 50.4495 19.6898 50.279 19.6051L46.2751 16.7128C45.508 16.1178 44.4859 15.4362 42.5271 15.6066L19.1837 17.3079C18.3323 17.3924 18.1622 17.8176 18.5013 18.1586L21.8259 20.7952ZM23.2733 26.4094V51.7558C23.2733 53.118 23.9546 53.6277 25.4879 53.5434L51.982 52.0115C53.516 51.9272 53.687 50.9903 53.687 49.8838V24.7072C53.687 23.6025 53.2617 23.0067 52.3225 23.0917L24.6358 24.7072C23.6141 24.7931 23.2733 25.3038 23.2733 26.4094ZM48.6601 29.387C49.4283 29.3008 49.5982 28.5354 49.4283 27.769L43.5485 28.111C42.6964 28.1954 42.0158 28.8756 42.186 29.8124L44.4015 30.0665V41.8049L35.7117 28.5356L29.4072 28.9603C28.2135 29.0461 27.7883 30.1509 27.959 30.9171L30.0884 31.0876V47.8443L28.5548 48.2689C27.9587 48.4393 27.788 49.2892 27.9587 49.6298L33.8355 49.2892C35.9672 49.2892 35.9672 47.7588 35.9672 47.7588L33.325 47.1631V34.4896L41.6751 47.5883C42.6964 48.8635 43.0379 49.2892 44.4015 49.2892C45.2531 49.2892 46.2751 48.9488 47.3835 48.3535V29.6412L48.6601 29.387Z" fill="white"/>
</g>
<defs>
<clipPath id="clip0_0_6913">
<rect width="70" height="70" fill="white"/>
</clipPath>
</defs>
</svg>
