<svg width="53" height="56" viewBox="0 0 53 56" fill="none" xmlns="http://www.w3.org/2000/svg">
<path fill-rule="evenodd" clip-rule="evenodd" d="M33.8648 0.125514L3.32113 2.37307C0.858351 2.58624 0 4.19177 0 6.1165V39.4992C0 40.999 0.534933 42.281 1.82163 43.9944L9.00158 53.303C10.181 54.802 11.2527 55.1226 13.5047 55.0153L48.9748 52.875C51.9747 52.6621 52.8329 51.2701 52.8329 48.9162V11.36C52.8329 10.1432 52.3511 9.79169 50.9309 8.75558C50.8527 8.69871 50.7716 8.63964 50.6878 8.57818L40.9379 1.73061C38.5805 0.0193712 37.6155 -0.195959 33.8648 0.125514ZM14.3089 10.744C11.413 10.9393 10.755 10.9837 9.11037 9.6486L4.92831 6.33187C4.5018 5.90297 4.7157 5.36804 5.78666 5.26182L35.1509 3.12172C37.615 2.90727 38.9008 3.76471 39.8657 4.51317L44.9022 8.15148C45.1167 8.25807 45.6516 8.89922 45.0083 8.89922L14.6828 10.7188L14.3089 10.744ZM10.9311 48.5947V16.7108C10.9311 15.3201 11.3598 14.6776 12.645 14.5696L47.4729 12.5373C48.6543 12.4304 49.1892 13.18 49.1892 14.5696V46.2398C49.1892 47.6318 48.9742 48.8102 47.0445 48.9162L13.7169 50.8434C11.7881 50.9494 10.9311 50.3082 10.9311 48.5947ZM43.8322 18.421C44.0459 19.3851 43.8322 20.348 42.8658 20.4564L41.2599 20.7761V44.3148C39.8657 45.0637 38.5801 45.4918 37.5088 45.4918C35.7935 45.4918 35.3639 44.9564 34.0792 43.3523L23.5754 26.875V42.8174L26.8991 43.5667C26.8991 43.5667 26.8991 45.4918 24.2176 45.4918L16.8251 45.9204C16.6102 45.4918 16.8251 44.4227 17.5748 44.2084L19.5039 43.6742V22.5956L16.8254 22.3811C16.6106 21.4173 17.1455 20.0275 18.6471 19.9196L26.5777 19.3854L37.5088 36.0771V21.3111L34.7218 20.9915C34.5077 19.8131 35.3639 18.9575 36.4358 18.8512L43.8322 18.421Z" fill="white"/>
</svg>
