<svg width="70" height="70" viewBox="0 0 70 70" fill="none" xmlns="http://www.w3.org/2000/svg">
<path fill-rule="evenodd" clip-rule="evenodd" d="M12.3155 8.56101C18.6426 3.03899 26.6793 0.00444533 34.9884 0H35C43.3101 0.00162766 51.3486 3.03417 57.6779 8.55525C64.0071 14.0763 68.2143 21.7258 69.5469 30.1356C70.8795 38.5455 69.2506 47.167 64.9516 54.4584C60.6526 61.7498 53.9638 67.2354 46.0816 69.9341C44.308 70.2847 43.6763 69.1676 43.6763 68.2109C43.6763 67.8187 43.6808 67.1316 43.6868 66.2133C43.6988 64.3629 43.7169 61.5734 43.7169 58.3646C43.7169 55.0132 42.5983 52.8324 41.3464 51.7152C49.136 50.8298 57.3254 47.7934 57.3254 34.0133C57.378 30.4418 56.0846 26.9872 53.7146 24.3691C54.074 23.454 55.2737 19.8055 53.3669 14.8615C53.3669 14.8615 50.4342 13.8989 43.7517 18.5398C38.0148 16.9313 31.962 16.9313 26.2252 18.5398C19.5368 13.8989 16.5983 14.8615 16.5983 14.8615C14.6973 19.8173 15.8971 23.4659 16.2564 24.3691C13.8939 26.9868 12.6032 30.4354 12.6514 34.0014C12.6514 47.7518 20.8235 50.8298 28.6014 51.7331C27.5988 52.6303 26.6888 54.211 26.3758 56.5344C24.3821 57.4614 19.3108 59.0479 16.1927 53.5633C16.1927 53.5633 14.3438 50.1168 10.8257 49.8613C10.8257 49.8613 7.412 49.8197 10.5881 52.042C10.5881 52.042 12.8832 53.1354 14.4713 57.295C14.4713 57.295 16.5288 63.7007 26.2657 61.5318C26.2723 63.2398 26.2865 64.8646 26.2974 66.1209C26.3057 67.0675 26.3121 67.8049 26.3121 68.2109C26.3121 69.1557 25.6572 70.2669 23.9184 69.9341C16.0372 67.2357 9.34901 61.7511 5.0499 54.461C0.750797 47.1708 -0.878902 38.5505 0.452175 30.1415C1.78325 21.7325 5.98832 14.083 12.3155 8.56101ZM12.6623 51.6318C12.8883 51.7566 13.1665 51.7031 13.2419 51.5249C13.3288 51.3466 13.155 51.1089 12.9289 50.9841C12.7029 50.8593 12.4305 50.9069 12.3493 51.0911C12.2682 51.2753 12.4363 51.507 12.6623 51.6318ZM14.2731 53.1967C14.4042 53.2271 14.5416 53.2098 14.6616 53.1478C14.8355 52.9933 14.7833 52.6486 14.5573 52.399C14.3312 52.1495 14.0182 52.0782 13.8444 52.2327C13.6705 52.3872 13.7169 52.7318 13.9429 52.9814C14.0253 53.0902 14.142 53.1664 14.2731 53.1967ZM16.0414 55.2092C15.8269 55.3637 15.4618 55.2092 15.2589 54.9002C15.2028 54.8447 15.1582 54.7783 15.1277 54.7048C15.0973 54.6313 15.0815 54.5522 15.0815 54.4723C15.0815 54.3925 15.0973 54.3134 15.1277 54.2399C15.1582 54.1664 15.2028 54.0999 15.2589 54.0445C15.4734 53.8959 15.8385 54.0445 16.0414 54.3475C16.2442 54.6506 16.25 55.0547 16.0414 55.2092ZM17.0149 57.0692C17.3336 57.3663 17.722 57.4257 17.9132 57.2058C18.1161 56.9919 18.0523 56.5819 17.7219 56.2907C17.3916 55.9996 17.0033 55.9401 16.812 56.154C16.6207 56.368 16.6961 56.772 17.0149 57.0692ZM20.5385 58.3702C20.4516 58.6495 20.0575 58.7743 19.6633 58.6554C19.2692 58.5366 19.0084 58.2038 19.0838 57.9186C19.1591 57.6334 19.559 57.5026 19.9589 57.6334C20.3588 57.7641 20.6139 58.079 20.5385 58.3702ZM22.6601 59.119C23.0774 59.1131 23.402 58.8635 23.402 58.5723C23.402 58.2752 23.06 58.0435 22.6427 58.0494C22.2254 58.0554 21.9009 58.3049 21.9009 58.5961C21.9009 58.8873 22.2428 59.125 22.6601 59.119ZM26.0682 58.1153C26.1203 58.4065 25.8305 58.7095 25.4132 58.7808C24.9959 58.8521 24.6308 58.6798 24.5786 58.3946C24.5265 58.1094 24.8279 57.8004 25.2336 57.7231C25.6393 57.6459 26.016 57.8241 26.0682 58.1153Z" fill="white"/>
</svg>
