<svg width="100" height="100" viewBox="0 0 100 100" fill="none" xmlns="http://www.w3.org/2000/svg">
<g style="mix-blend-mode:multiply" opacity="0.75">
<path d="M42.1252 91.8964C23.8568 88.6124 9.4834 73.9946 9.4834 54.5805C9.4834 29.4538 31.6774 11.5978 56.2543 14.9887C81.3199 18.4408 97.0527 41.3985 90.8054 63.8675C85.108 84.2438 63.4486 95.7761 42.1252 91.8964Z" fill="#818181"/>
</g>
<g style="mix-blend-mode:multiply" opacity="0.81">
<path d="M44.3395 91.9421C25.2768 89.3912 10.1396 74.3915 10.1396 54.504C10.1396 30.3396 31.1575 12.9265 54.9248 15.4774C79.0434 18.0588 95.5705 39.3669 90.9423 61.4692C86.6044 82.1511 65.617 94.7984 44.3395 91.9421Z" fill="#777777"/>
</g>
<g style="mix-blend-mode:multiply" opacity="0.88">
<path d="M46.5396 91.988C26.7132 90.2315 10.8887 74.8652 10.8887 54.4431C10.8887 31.2256 30.654 14.2861 53.6576 15.9663C76.8444 17.7229 94.1964 37.3508 91.1415 59.1476C88.1477 80.0586 67.8019 93.8668 46.5396 91.988Z" fill="#6C6C6C"/>
</g>
<g style="mix-blend-mode:multiply" opacity="0.94">
<path d="M48.7389 92.0185C28.164 91.1326 11.6216 75.2165 11.6216 54.3666C11.6216 32.0962 30.1497 15.6149 52.252 16.455C74.3544 17.2951 92.7298 35.2734 91.2176 56.8258C89.7359 77.9201 70.0164 92.9503 48.7389 92.0185Z" fill="#626262"/>
</g>
<g style="mix-blend-mode:multiply">
<path d="M91.3548 54.5041C91.3548 75.8122 72.2462 92.0644 50.9382 92.0644C29.6301 92.0644 12.3545 75.5984 12.3545 54.2903C12.3545 32.9822 29.6301 16.9286 50.9382 16.9286C72.2462 16.9286 91.3548 33.196 91.3548 54.5041Z" fill="#575757"/>
</g>
<path d="M93.0704 56.9297C96.8975 33.1426 80.7167 10.7568 56.9296 6.92968C33.1425 3.10256 10.7567 19.2834 6.9296 43.0705C3.10249 66.8576 19.2833 89.2434 43.0704 93.0705C66.8575 96.8976 89.2433 80.7168 93.0704 56.9297Z" fill="url(#paint0_radial_0_7571)"/>
<path d="M49.6099 92.2936C72.969 92.2936 91.9053 73.3573 91.9053 49.9982C91.9053 26.6391 72.969 7.70276 49.6099 7.70276C26.2507 7.70276 7.31445 26.6391 7.31445 49.9982C7.31445 73.3573 26.2507 92.2936 49.6099 92.2936Z" fill="url(#paint1_radial_0_7571)"/>
<g style="mix-blend-mode:multiply">
<path d="M17.6401 26.4904C19.5189 25.8336 24.2845 29.4079 23.8263 31.4394C23.3681 33.4709 22.085 35.7468 23.8263 36.0218C25.5676 36.2967 28.5309 32.6308 28.5309 29.6981C28.5309 26.7654 32.6092 22.687 34.8698 23.3591C37.1305 24.0312 36.9625 27.8346 38.719 26.9792C40.4756 26.1238 38.2608 22.687 41.2088 21.7858C44.1568 20.8846 55.2309 24.7338 56.1321 28.9038C57.0333 33.0738 58.851 38.5115 57.2624 39.596C55.6739 40.6805 61.3713 50.2883 63.3723 50.0133C68.7337 49.2038 65.862 59.728 63.3723 61.3165C60.8825 62.9051 52.512 67.8693 49.6251 63.8063C46.7382 59.7433 38.719 60.6292 42.3697 63.8063C46.0203 66.9834 51.9774 72.7419 49.6251 75.7969C46.5702 79.8141 38.7343 83.1898 36.7333 76.9272C36.0307 74.7124 24.758 73.7348 29.3404 69.6717C33.9228 65.6087 30.0125 56.5509 27.813 59.9418C25.6134 63.3328 19.6716 65.5934 18.7704 59.0406C17.8692 52.4878 12.7522 56.0926 10.0333 50.4257C7.31444 44.7589 12.294 28.3692 17.6401 26.4904Z" fill="#DDDDDD"/>
</g>
<g style="mix-blend-mode:multiply">
<path d="M69.9704 33.9293C65.6629 33.7765 64.9908 28.7359 63.4176 29.3469C61.8443 29.9579 59.5684 35.4567 59.5684 39.5198C59.5684 43.5828 65.4491 46.989 68.84 44.9575C72.231 42.926 72.7503 34.0362 69.9704 33.9293Z" fill="#DDDDDD"/>
</g>
<g style="mix-blend-mode:multiply">
<path d="M82.4043 33.2571C80.1589 33.4557 77.6691 37.5493 79.7007 38.6796C81.7322 39.8099 83.0916 41.8414 84.6802 41.1693C86.2687 40.4973 87.3838 32.7988 82.4043 33.2571Z" fill="#DDDDDD"/>
</g>
<g style="mix-blend-mode:multiply">
<path d="M74.263 41.261C74.7517 39.9016 79.0134 40.4515 79.9298 42.2539C80.4215 43.0959 81.0826 43.8267 81.8714 44.3999C82.6602 44.9731 83.5595 45.3762 84.5122 45.5837C85.6425 45.5837 90.6221 47.0043 90.6221 49.9523C90.6221 52.9003 89.7056 60.7972 88.1323 61.2555C86.559 61.7137 81.4878 58.0936 82.5418 56.276C83.5957 54.4583 82.5418 54.7485 82.5418 50.9146C82.5418 47.0806 78.8301 52.6711 79.0133 53.7862C79.4105 56.3523 85.337 60.1251 82.5418 63.5161C79.7465 66.9071 72.9799 62.6149 74.324 58.7657C75.6682 54.9165 71.8496 52.4267 69.3598 49.9523C66.87 47.4778 72.9188 45.0644 74.263 41.261Z" fill="#DDDDDD"/>
</g>
<g style="mix-blend-mode:multiply">
<path d="M46.0049 18.1047C43.9428 18.3491 43.6678 21.74 46.6006 20.961C49.5333 20.182 49.1973 17.7228 46.0049 18.1047Z" fill="#DDDDDD"/>
</g>
<path d="M41.56 46.6682C43.0874 45.9045 47.8378 47.5083 43.9734 49.9981C40.1089 52.4878 37.5428 48.6997 41.56 46.6682Z" fill="#E0E0E0"/>
<path d="M50.19 82.0443C49.1361 82.7164 48.9069 85.6491 51.4273 84.5646C54.4975 83.2205 52.7103 80.4252 50.19 82.0443Z" fill="#E0E0E0"/>
<g style="mix-blend-mode:multiply">
<path d="M58.3618 19.6779C57.3995 20.1667 52.3742 21.8622 55.4596 22.7329C56.8649 23.13 62.9289 22.4274 62.3943 21.0221C62.2364 20.6528 62.0021 20.3211 61.7066 20.0489C61.4111 19.7768 61.0613 19.5704 60.6803 19.4434C60.2992 19.3164 59.8955 19.2716 59.4959 19.312C59.0962 19.3525 58.7097 19.4772 58.3618 19.6779Z" fill="#DDDDDD"/>
</g>
<path d="M66.4419 65.7004C66.0448 64.9061 61.1264 65.4407 62.8066 67.686C64.4868 69.9314 64.441 67.8693 65.3727 68.2207C67.2515 68.8927 66.7474 66.2961 66.4419 65.7004Z" fill="#E0E0E0"/>
<g style="mix-blend-mode:multiply">
<path d="M35.0224 67.7778C35.0224 67.7778 34.0295 66.0976 33.2047 67.7778C32.3799 69.458 35.4501 74.5139 36.9775 73.1544C38.505 71.795 38.0009 68.4651 36.9775 68.6637C36.6047 68.6817 36.233 68.6108 35.893 68.4567C35.5531 68.3027 35.2546 68.07 35.0224 67.7778Z" fill="#DDDDDD"/>
</g>
<path d="M29.5695 81.4026C26.316 82.2733 26.927 86.1225 29.9514 84.6256C32.9757 83.1287 30.2721 81.2193 29.5695 81.4026Z" fill="#DDDDDD"/>
<g style="mix-blend-mode:multiply">
<path d="M63.3721 84.1062C61.5086 84.595 61.7071 86.4738 63.3721 85.6337C65.037 84.7936 63.7692 84.0299 63.3721 84.1062Z" fill="#DDDDDD"/>
</g>
<g style="mix-blend-mode:screen" opacity="0.4">
<path d="M80.6325 70.2827C77.104 71.2145 77.8983 75.5372 81.1671 73.9028C84.4358 72.2684 81.3962 70.0231 80.6325 70.2827Z" fill="#6B6B6B"/>
</g>
<path d="M19.931 56.2148C18.3272 56.0621 19.0756 62.4774 22.3902 61.8054C25.7048 61.1333 28.7444 58.4602 22.9248 58.4602C19.7019 58.4602 21.0308 56.3065 19.931 56.2148Z" fill="#A8A8A8"/>
<g style="mix-blend-mode:multiply">
<path d="M25.3839 31.8366C25.3839 31.8366 22.5428 35.2886 24.9257 34.5402C27.3085 33.7917 27.1863 29.7592 25.3839 31.8366Z" fill="#DDDDDD"/>
</g>
<path d="M33.9223 24.6117C32.5323 24.9783 30.1495 26.7502 32.3948 27.6666C34.6402 28.5831 36.351 23.9549 33.9223 24.6117Z" fill="#D1D1D1"/>
<g style="mix-blend-mode:multiply">
<path d="M73.3773 19.7239C79.4014 27.0264 82.5256 36.2914 82.1539 45.7507C81.7821 55.21 77.9403 64.2012 71.3616 71.0084C64.783 77.8156 55.9281 81.9621 46.487 82.6566C37.0459 83.3511 27.6797 80.5449 20.1758 74.7736C23.6071 79.0149 27.9001 82.479 32.7707 84.9367C37.6412 87.3943 42.9783 88.7894 48.4285 89.0296C53.8787 89.2699 59.3177 88.3497 64.3856 86.3301C69.4535 84.3105 74.0347 81.2375 77.8258 77.3145C81.6169 73.3915 84.5316 68.708 86.3768 63.5741C88.2221 58.4401 88.9558 52.9728 88.5294 47.5339C88.1031 42.0951 86.5264 36.8089 83.9037 32.0252C81.2811 27.2414 77.6723 23.0693 73.3162 19.785L73.3773 19.7239Z" fill="#DBDBDB"/>
</g>
<g style="mix-blend-mode:soft-light">
<path d="M12.3088 41.1541C10.4453 53.0683 21.8707 71.1992 34.4264 71.1992C46.9822 71.1992 83.5496 57.6048 75.6679 35.6858C71.5743 24.352 59.599 9.90222 47.0433 9.90222C34.4875 9.90222 15.5928 20.457 12.3088 41.1541Z" fill="#C9C9C9"/>
</g>
<g style="mix-blend-mode:screen" opacity="0.3">
<path d="M39.8797 30.4771C16.7998 41.3985 14.9668 46.3169 15.7611 41.261C18.9382 21.0985 37.283 13.6751 41.9418 13.6751C46.6006 13.6751 75.5459 13.5987 39.8797 30.4771Z" fill="#FFF1D4"/>
</g>
<path d="M9.05553 58.17C8.97062 58.1656 8.88898 58.1359 8.82103 58.0848C8.75307 58.0337 8.70189 57.9635 8.67402 57.8831C8.64615 57.8028 8.64285 57.716 8.66456 57.6338C8.68626 57.5516 8.73198 57.4777 8.79587 57.4216C9.08608 57.1467 9.28465 57.1008 9.52905 57.4216C9.77344 57.7424 9.60542 58.17 9.05553 58.17Z" fill="url(#paint2_radial_0_7571)"/>
<defs>
<radialGradient id="paint0_radial_0_7571" cx="0" cy="0" r="1" gradientUnits="userSpaceOnUse" gradientTransform="translate(33.3555 24.6961) scale(68.9954 68.9954)">
<stop stop-color="#F5F5F5"/>
<stop offset="1" stop-color="#F5F5F5"/>
</radialGradient>
<radialGradient id="paint1_radial_0_7571" cx="0" cy="0" r="1" gradientUnits="userSpaceOnUse" gradientTransform="translate(33.4799 25.4671) scale(66.8875 66.8875)">
<stop stop-color="#E0E0E0"/>
<stop offset="1" stop-color="#E0E0E0"/>
</radialGradient>
<radialGradient id="paint2_radial_0_7571" cx="0" cy="0" r="1" gradientUnits="userSpaceOnUse" gradientTransform="translate(8.62784 57.6202) scale(1.1456 1.14559)">
<stop stop-color="#F5F5F5"/>
<stop offset="1" stop-color="#DCE7F0"/>
</radialGradient>
</defs>
</svg>
