<svg width="119" height="119" viewBox="0 0 119 119" fill="none" xmlns="http://www.w3.org/2000/svg">
<path d="M100.406 20.4531H33.4688C31.9893 20.4531 30.5705 21.0408 29.5244 22.0869C28.4783 23.133 27.8906 24.5518 27.8906 26.0312V35.3281H18.5938C17.1143 35.3281 15.6955 35.9158 14.6494 36.9619C13.6033 38.008 13.0156 39.4268 13.0156 40.9062V92.9688C13.0156 94.4482 13.6033 95.867 14.6494 96.9131C15.6955 97.9592 17.1143 98.5469 18.5938 98.5469H85.5312C87.0107 98.5469 88.4295 97.9592 89.4756 96.9131C90.5217 95.867 91.1094 94.4482 91.1094 92.9688V83.6719H100.406C101.886 83.6719 103.304 83.0842 104.351 82.0381C105.397 80.992 105.984 79.5732 105.984 78.0938V26.0312C105.984 24.5518 105.397 23.133 104.351 22.0869C103.304 21.0408 101.886 20.4531 100.406 20.4531ZM31.6094 26.0312C31.6094 25.5381 31.8053 25.0652 32.154 24.7165C32.5027 24.3678 32.9756 24.1719 33.4688 24.1719H100.406C100.899 24.1719 101.372 24.3678 101.721 24.7165C102.07 25.0652 102.266 25.5381 102.266 26.0312V59.6859L94.4144 51.8347C93.8962 51.3147 93.2804 50.9021 92.6024 50.6205C91.9243 50.339 91.1974 50.1941 90.4632 50.1941C89.7291 50.1941 89.0021 50.339 88.3241 50.6205C87.6461 50.9021 87.0303 51.3147 86.5121 51.8347L75.8997 62.4471L54.1496 40.6785C53.6314 40.1584 53.0156 39.7458 52.3376 39.4643C51.6596 39.1828 50.9326 39.0378 50.1985 39.0378C49.4643 39.0378 48.7374 39.1828 48.0593 39.4643C47.3813 39.7458 46.7655 40.1584 46.2473 40.6785L31.6094 55.3164V26.0312ZM87.3906 92.9688C87.3906 93.4619 87.1947 93.9348 86.846 94.2835C86.4973 94.6322 86.0244 94.8281 85.5312 94.8281H18.5938C18.1006 94.8281 17.6277 94.6322 17.279 94.2835C16.9303 93.9348 16.7344 93.4619 16.7344 92.9688V40.9062C16.7344 40.4131 16.9303 39.9402 17.279 39.5915C17.6277 39.2428 18.1006 39.0469 18.5938 39.0469H27.8906V78.0938C27.8906 79.5732 28.4783 80.992 29.5244 82.0381C30.5705 83.0842 31.9893 83.6719 33.4688 83.6719H87.3906V92.9688ZM100.406 79.9531H33.4688C32.9756 79.9531 32.5027 79.7572 32.154 79.4085C31.8053 79.0598 31.6094 78.5869 31.6094 78.0938V60.5877L48.8876 43.3095C49.0603 43.1366 49.2654 42.9995 49.4911 42.9059C49.7168 42.8123 49.9588 42.7642 50.2031 42.7642C50.4475 42.7642 50.6894 42.8123 50.9152 42.9059C51.1409 42.9995 51.3459 43.1366 51.5186 43.3095L74.6028 66.3936C74.9513 66.7414 75.4236 66.9366 75.916 66.9366C76.4083 66.9366 76.8806 66.7414 77.2291 66.3936L89.157 54.4657C89.3297 54.2929 89.5348 54.1557 89.7605 54.0621C89.9862 53.9686 90.2282 53.9204 90.4725 53.9204C90.7169 53.9204 90.9588 53.9686 91.1846 54.0621C91.4103 54.1557 91.6154 54.2929 91.788 54.4657L102.266 64.9433V78.0938C102.266 78.5869 102.07 79.0598 101.721 79.4085C101.372 79.7572 100.899 79.9531 100.406 79.9531ZM76.2344 39.0469C76.2344 38.3114 76.4525 37.5924 76.8611 36.9808C77.2697 36.3693 77.8505 35.8927 78.53 35.6112C79.2095 35.3297 79.9573 35.2561 80.6786 35.3996C81.4 35.5431 82.0626 35.8972 82.5827 36.4173C83.1028 36.9374 83.4569 37.6 83.6004 38.3214C83.7439 39.0427 83.6703 39.7905 83.3888 40.47C83.1073 41.1495 82.6307 41.7303 82.0192 42.1389C81.4076 42.5475 80.6886 42.7656 79.9531 42.7656C78.9669 42.7656 78.021 42.3738 77.3236 41.6764C76.6262 40.979 76.2344 40.0331 76.2344 39.0469Z" fill="white"/>
</svg>
